<?xml version="1.0"?>
<svg xmlns="http://www.w3.org/2000/svg" xmlns:xlink="http://www.w3.org/1999/xlink" xmlns:svgjs="http://svgjs.com/svgjs" version="1.1" width="512" height="512" x="0" y="0" viewBox="0 0 512 512" style="enable-background:new 0 0 512 512" xml:space="preserve" class=""><g transform="matrix(1,0,0,1,-5.684341886080802e-14,-8.526512829121202e-14)">
<path xmlns="http://www.w3.org/2000/svg" style="" d="M443.775,8.41L257.748,54.309l40.424,123.258l177.077-73.185  c12.745-5.184,19.306-19.346,15.018-32.421l-15.192-46.322C470.788,12.566,457.115,5.039,443.775,8.41z" fill="#78909c" data-original="#78909c" class=""/>
<path xmlns="http://www.w3.org/2000/svg" style="" d="M79.421,205.796l-14.468-44.114l52.055-13.082c9.796-2.462,19.83,3.069,22.978,12.668l0,0  c3.129,9.54-1.602,19.881-10.865,23.754L79.421,205.796z" fill="#898890" data-original="#898890"/>
<g xmlns="http://www.w3.org/2000/svg">
	<path style="" d="M261.038,341.666c0.613,18.935,28.639,162.717,28.639,162.717h173.161   c0,0,28.025-143.782,28.639-162.717H261.038z" fill="#4d0686" data-original="#ea80fc" class=""/>
	<path style="" d="M104.91,407.356c19.331,19.331,19.331,50.671,0,70.001c-19.331,19.331-50.671,19.331-70.001,0   c-19.331-19.33-19.331-50.671,0-70.001l35.001-35.001L104.91,407.356z" fill="#4d0686" data-original="#ea80fc" class=""/>
	<path style="" d="M85.13,282.802c10.496,10.496,10.496,27.514,0,38.01s-27.514,10.496-38.01,0s-10.496-27.514,0-38.01   l19.005-19.005L85.13,282.802z" fill="#4d0686" data-original="#ea80fc" class=""/>
</g>
<g xmlns="http://www.w3.org/2000/svg">
	<path style="" d="M104.91,456.37c-19.33,19.331-50.671,19.331-70.001,0c-6.979-6.979-11.425-15.527-13.364-24.507   c-3.432,15.892,1.014,33.143,13.364,45.495c19.33,19.331,50.671,19.331,70.001,0c12.351-12.351,16.797-29.603,13.364-45.495   C116.334,440.844,111.889,449.391,104.91,456.37z" fill="#32005a" data-original="#b667c9" class=""/>
	<path style="" d="M85.13,299.825c-10.496,10.496-27.514,10.496-38.011,0c-2.521-2.521-4.429-5.419-5.739-8.512   c-4.145,9.784-2.236,21.523,5.739,29.499c10.496,10.496,27.515,10.496,38.011,0c7.975-7.975,9.885-19.715,5.739-29.499   C89.559,294.405,87.651,297.304,85.13,299.825z" fill="#32005a" data-original="#b667c9" class=""/>
	<path style="" d="M285.563,483.055c2.482,12.954,4.114,21.328,4.114,21.328h173.161c0,0,1.632-8.374,4.114-21.328   H285.563z" fill="#32005a" data-original="#b667c9" class=""/>
</g>
<path xmlns="http://www.w3.org/2000/svg" style="" d="M490.268,71.962l-2.29-6.984c-3.061,5.325-7.987,9.757-14.278,12.285l-183.835,74.969l8.309,25.335  l177.077-73.185C487.995,99.198,494.556,85.036,490.268,71.962z" fill="#4a6068" data-original="#4a6068" class=""/>
<path xmlns="http://www.w3.org/2000/svg" style="" d="M369.089,69.482l-4.158-14.655l14.656-4.158l4.158,14.655L369.089,69.482z M398.4,61.166  l-4.158-14.655l58.622-16.631l4.158,14.655L398.4,61.166z" fill="#ffffff" data-original="#ffffff" class=""/>
<polygon xmlns="http://www.w3.org/2000/svg" style="" points="96.759,153.689 64.953,161.683 79.421,205.796 110.282,192.896 " fill="#4d0686" data-original="#ea80fc" class=""/>
<path xmlns="http://www.w3.org/2000/svg" d="M273.097,125.55l20.397,62.193l184.626-76.305c16.383-6.664,24.897-25.047,19.386-41.85l-15.192-46.324  c-5.51-16.796-23.25-26.562-40.381-22.246L247.953,48.881l20.396,62.193l-124.601,40.865c-6.234-8.925-17.571-13.499-28.597-10.726  l-59.983,15.076l19.585,59.716l57.305-23.956c10.433-4.361,16.787-14.794,16.476-25.648L273.097,125.55z M445.6,15.804l0.041-0.01  c9.418-2.382,19.17,2.987,22.197,12.218l15.192,46.324c3.027,9.232-1.65,19.33-10.689,23.006l-169.488,70.049L267.545,59.737  L445.6,15.804z M126.183,177.993L84.09,195.589l-9.352-28.512l44.126-11.09c5.891-1.475,11.99,1.883,13.883,7.655  C134.625,169.366,131.742,175.671,126.183,177.993z" fill="#000000" data-original="#000000" style="" class=""/>
<path xmlns="http://www.w3.org/2000/svg" d="M438.306,279.077h-18.357V208.37h-87.384v70.707h-18.357c-16.611,0-32.123,6.573-43.677,18.506  c-11.57,11.951-17.645,27.693-17.107,44.329c0.626,19.323,27.626,158.032,28.776,163.928l1.2,6.16h185.712l1.2-6.16  c1.15-5.896,28.15-144.605,28.776-163.927c0.538-16.637-5.536-32.379-17.106-44.329C470.43,285.649,454.919,279.077,438.306,279.077  z M281.475,308.179c8.658-8.943,20.284-13.868,32.732-13.868h25.974h7.617h28.804v-15.234h-28.804v-55.473h56.916v19.263h-28.804  v15.234h28.804v36.21h33.591c12.45,0,24.075,4.926,32.733,13.869c6.942,7.171,11.238,16.167,12.472,25.869H269.003  C270.237,324.346,274.532,315.35,281.475,308.179z M456.558,496.766H295.955c-7.501-38.722-22.805-119.671-26.498-147.483h213.598  C479.363,377.097,464.059,458.045,456.558,496.766z" fill="#000000" data-original="#000000" style="" class=""/>
<path xmlns="http://www.w3.org/2000/svg" d="M69.908,361.583l-40.387,40.387c-22.269,22.27-22.269,58.504,0,80.774c11.135,11.134,25.761,16.702,40.387,16.702  s29.253-5.568,40.388-16.702c22.269-22.27,22.269-58.504,0-80.774L69.908,361.583z M99.523,471.971  c-16.328,16.331-42.899,16.331-59.229,0c-16.33-16.329-16.33-42.899,0-59.229l29.614-29.615l29.615,29.614  C115.853,429.072,115.853,455.642,99.523,471.971z" fill="#000000" data-original="#000000" style="" class=""/>
<path xmlns="http://www.w3.org/2000/svg" d="M66.124,336.286c8.833,0,17.666-3.363,24.392-10.087c13.449-13.45,13.449-35.334,0-48.783l-24.392-24.391l-24.392,24.391  c-13.449,13.45-13.449,35.334,0,48.783C48.459,332.923,57.292,336.286,66.124,336.286z M52.506,288.188l13.618-13.619l13.618,13.619  c7.51,7.509,7.51,19.729,0,27.237c-3.637,3.638-8.474,5.642-13.618,5.642s-9.981-2.004-13.618-5.642  C44.997,307.917,44.997,295.697,52.506,288.188z" fill="#000000" data-original="#000000" style="" class=""/>
<rect xmlns="http://www.w3.org/2000/svg" x="338.174" y="388.101" width="15.234" height="15.234" fill="#000000" data-original="#000000" style="" class=""/>
<rect xmlns="http://www.w3.org/2000/svg" x="368.642" y="388.101" width="15.234" height="15.234" fill="#000000" data-original="#000000" style="" class=""/>
<rect xmlns="http://www.w3.org/2000/svg" x="399.11" y="388.101" width="15.234" height="15.234" fill="#000000" data-original="#000000" style="" class=""/>
<g xmlns="http://www.w3.org/2000/svg">
</g>
<g xmlns="http://www.w3.org/2000/svg">
</g>
<g xmlns="http://www.w3.org/2000/svg">
</g>
<g xmlns="http://www.w3.org/2000/svg">
</g>
<g xmlns="http://www.w3.org/2000/svg">
</g>
<g xmlns="http://www.w3.org/2000/svg">
</g>
<g xmlns="http://www.w3.org/2000/svg">
</g>
<g xmlns="http://www.w3.org/2000/svg">
</g>
<g xmlns="http://www.w3.org/2000/svg">
</g>
<g xmlns="http://www.w3.org/2000/svg">
</g>
<g xmlns="http://www.w3.org/2000/svg">
</g>
<g xmlns="http://www.w3.org/2000/svg">
</g>
<g xmlns="http://www.w3.org/2000/svg">
</g>
<g xmlns="http://www.w3.org/2000/svg">
</g>
<g xmlns="http://www.w3.org/2000/svg">
</g>
</g></svg>
