<svg height="394pt" viewBox="-9 0 394 394.82322" width="394pt" xmlns="http://www.w3.org/2000/svg"><path d="m339.011719 385.941406c-8.347657 10.292969-23.457031 11.871094-33.753907 3.527344l-218.292968-176.976562c-20.042969-16.257813-37.332032-35.644532-51.203125-57.40625-2.847657-4.46875-2.519531-10.253907.816406-14.371094 3.335937-4.113282 8.929687-5.632813 13.890625-3.765625 24.160156 9.082031 46.695312 21.996093 66.742188 38.253906l218.273437 176.984375c10.292969 8.347656 11.871094 23.457031 3.527344 33.753906zm0 0" fill="#d9d9d9"/><path d="m339.011719 385.941406c-8.347657 10.292969-23.457031 11.871094-33.753907 3.527344l-62.140624-50.398438 30.222656-37.289062 62.144531 50.398438c10.296875 8.347656 11.875 23.464843 3.527344 33.761718zm0 0" fill="#f9adb1"/><path d="m227.53125 5.71875c14.53125 10.058594 18.15625 29.992188 8.097656 44.523438l-45.539062 65.777343c-10.058594 14.53125-29.992188 18.15625-44.523438 8.09375-14.53125-10.058593-18.15625-29.992187-8.09375-44.523437l45.535156-65.777344c10.058594-14.527344 29.992188-18.152344 44.523438-8.09375zm0 0" fill="#f9d7c0"/><path d="m155.183594 82.125 26.308594 18.210938-18.214844 26.3125c-5.027344 7.265624-14.996094 9.078124-22.261719 4.046874s-9.078125-14.996093-4.046875-22.261718zm0 0" fill="#f9adb1"/><path d="m275.554688 48.644531c14.527343 10.054688 18.152343 29.984375 8.097656 44.511719l-45.519532 65.761719c-10.054687 14.527343-29.984374 18.152343-44.511718 8.09375-14.527344-10.054688-18.152344-29.984375-8.097656-44.511719l45.519531-65.757812c10.058593-14.527344 29.984375-18.152344 44.511719-8.097657zm0 0" fill="#f5d3bd"/><path d="m288.003906 66.261719c-5.925781-8.664063-15.75-13.839844-26.246094-13.828125-10.496093.011718-20.308593 5.207031-26.21875 13.882812l-45.527343 65.777344c-5.429688 7.886719-7.011719 17.804688-4.304688 26.992188 5.921875 8.664062 15.746094 13.84375 26.242188 13.832031 10.496093-.011719 20.308593-5.210938 26.214843-13.890625l45.527344-65.800782c5.421875-7.878906 7.007813-17.785156 4.3125-26.964843zm0 0" fill="#f9d7c0"/><path d="m203.234375 125.042969 26.304687 18.207031-18.207031 26.304688c-5.027343 7.261718-14.992187 9.074218-22.253906 4.046874-7.265625-5.027343-9.078125-14.992187-4.050781-22.257812zm0 0" fill="#ffb1b5"/><path d="m323.671875 91.738281c14.527344 10.058594 18.152344 29.992188 8.09375 44.523438l-45.535156 65.777343c-10.0625 14.53125-29.996094 18.152344-44.527344 8.09375-14.53125-10.058593-18.152344-29.992187-8.09375-44.523437l45.535156-65.777344c10.058594-14.53125 29.996094-18.152343 44.527344-8.09375zm0 0" fill="#f5d3bd"/><path d="m330.722656 101.042969c-14.53125-10.058594-34.46875-6.433594-44.527344 8.097656l-45.535156 65.777344c-6.617187 9.609375-7.453125 22.070312-2.175781 32.476562 6.660156 6.5 15.886719 9.667969 25.136719 8.628907 9.25-1.039063 17.542968-6.171876 22.597656-13.988282l45.542969-65.773437c6.613281-9.617188 7.445312-22.074219 2.167969-32.480469-1.003907-.984375-2.074219-1.902344-3.207032-2.738281zm0 0" fill="#f9d7c0"/><path d="m251.3125 168.140625 26.3125 18.214844-18.214844 26.3125c-5.03125 7.265625-15 9.078125-22.265625 4.046875s-9.074219-14.996094-4.046875-22.261719zm0 0" fill="#ffb1b5"/><path d="m362.632812 147.898438c14.53125 10.058593 18.15625 29.992187 8.09375 44.523437l-45.535156 65.773437c-10.058594 14.53125-29.996094 18.15625-44.523437 8.097657-14.53125-10.058594-18.15625-29.996094-8.097657-44.527344l45.535157-65.773437c10.0625-14.53125 29.996093-18.15625 44.527343-8.09375zm0 0" fill="#f5d3bd"/><path d="m370.722656 157.042969c-14.53125-10.058594-34.46875-6.433594-44.527344 8.097656l-45.535156 65.777344c-7.058594 10.222656-7.539062 23.613281-1.242187 34.320312.433593.335938.800781.742188 1.242187 1.054688 6.980469 4.839843 15.597656 6.703125 23.953125 5.1875 8.355469-1.519531 15.765625-6.296875 20.597657-13.285157l45.503906-65.765624c7.058594-10.222657 7.546875-23.613282 1.25-34.320313-.441406-.34375-.785156-.753906-1.242188-1.066406zm0 0" fill="#f9d7c0"/><path d="m290.269531 224.296875 26.308594 18.214844-18.214844 26.308593c-5.027343 7.265626-14.996093 9.078126-22.261719 4.046876-7.265624-5.027344-9.078124-14.996094-4.046874-22.261719zm0 0" fill="#ffb1b5"/><g fill="#cdcdcd"><path d="m107.78125 229.371094v-37.34375h-16v24.367187zm0 0"/><path d="m115.78125 235.851562 16 12.976563v-40.800781h-16zm0 0"/><path d="m139.78125 255.308594 16 12.976562v-36.257812h-16zm0 0"/><path d="m163.78125 274.773438 16 12.96875v-39.714844h-16zm0 0"/><path d="m187.78125 294.226562 16 12.96875v-35.167968h-16zm0 0"/><path d="m211.78125 313.683594 16 12.976562v-38.632812h-16zm0 0"/></g><path d="m80.410156 80.027344h16v16h-16zm0 0" fill="#fbedbf"/><path d="m80.410156 112.027344h16v16h-16zm0 0" fill="#fbedbf"/><path d="m96.410156 96.027344h16v16h-16zm0 0" fill="#fbedbf"/><path d="m64.410156 96.027344h16v16h-16zm0 0" fill="#fbedbf"/><path d="m24.410156 16.027344h16v16h-16zm0 0" fill="#fbd699"/><path d="m24.410156 64.027344h16v16h-16zm0 0" fill="#fbd699"/><path d="m48.410156 40.027344h16v16h-16zm0 0" fill="#fbd699"/><path d="m.410156 40.027344h16v16h-16zm0 0" fill="#fbd699"/></svg>