<svg height="512" viewBox="0 0 512 512" width="512" xmlns="http://www.w3.org/2000/svg"><g id="Manicure_Pedicure" data-name="Manicure Pedicure"><g id="Filled"><path d="m248 120h32v272h-32z" fill="#ce93d8"/><path d="m136 296v-216c0-40 24-72 24-72s24 32 24 72v216z" fill="#eee"/><path d="m128 296h64a0 0 0 0 1 0 0v176a32 32 0 0 1 -32 32 32 32 0 0 1 -32-32v-176a0 0 0 0 1 0 0z" fill="#ce93d8"/><rect fill="#eee" height="496" rx="32" width="64" x="8" y="8"/><path d="m424 336-48-160 24-72-24-16-32 88 48 240v56a32 32 0 0 0 32 32 32 32 0 0 0 32-32v-56z" fill="#eee"/><path d="m472 88-24 16 24 72-48 160 32 80 48-240z" fill="#bdbdbd"/><rect fill="#eee" height="64" rx="16" width="32" x="248" y="440"/><path d="m248 8a32 32 0 0 1 32 32v32a0 0 0 0 1 0 0h-32a0 0 0 0 1 0 0v-64a0 0 0 0 1 0 0z" fill="#eee"/><circle cx="48" cy="72" fill="#fff" r="16"/><circle cx="368" cy="208" fill="#f5f5f5" r="8"/><circle cx="376" cy="248" fill="#f5f5f5" r="8"/><path d="m392 436.8v35.2a32 32 0 0 0 64 0v-56l-17.462-43.654a92.087 92.087 0 0 1 -46.538 64.454z" fill="#e0e0e0"/><path d="m184 167.872a132.56 132.56 0 0 1 -48 41.7v86.428h48z" fill="#e0e0e0"/><path d="m72 242.241c-12.78 30.287-38.924 61.416-64 74.274v155.485a32 32 0 0 0 32 32 32 32 0 0 0 32-32z" fill="#e0e0e0"/><g fill="#fff"><circle cx="160" cy="64" r="8"/><circle cx="264" cy="32" r="8"/><circle cx="364" cy="204" r="12"/><circle cx="376" cy="232" r="8"/></g><path d="m192 379.02a132.5 132.5 0 0 1 -64 58.32v34.66a32 32 0 0 0 32 32 32 32 0 0 0 32-32z" fill="#c087cc"/><path d="m280 267.016a132.589 132.589 0 0 1 -32 38.8v86.184h32z" fill="#c087cc"/></g><g id="Outline"><circle cx="8" cy="88.29" r="8"/><path d="m192 288v-208c0-42.182-24.555-75.406-25.6-76.8a8 8 0 0 0 -12.8 0c-1.045 1.394-25.6 34.618-25.6 76.8v184a8 8 0 0 0 16 0v-20.686l32-32v76.686h-48a7.989 7.989 0 0 0 -8 8v176a40 40 0 0 0 80 0v-96.28a8 8 0 0 0 -16-.02v96.3a24 24 0 0 1 -48 0v-168h48v7.72a8 8 0 0 0 16 0v-15.72a7.989 7.989 0 0 0 -8-8zm-16-99.314-32 32v-25.372l32-32zm0-48-32 32v-25.372l32-32zm0-48-32 32v-44.686c0-23.891 9.392-45.019 16.014-56.945 6.619 11.893 15.986 32.96 15.986 56.945z"/><circle cx="192" cy="343.71" r="8"/><path d="m40 0a40.015 40.015 0 0 0 -40 40v16.29a8 8 0 0 0 16 0v-16.29a24 24 0 0 1 48 0v76.686l-29.657 29.657a8 8 0 0 0 11.314 11.314l18.343-18.343v57.372l-29.657 29.657a8 8 0 0 0 11.314 11.314l18.343-18.343v57.372l-29.657 29.657a8 8 0 0 0 11.314 11.314l18.343-18.343v172.686a24 24 0 0 1 -48 0v-92.686l29.657-29.657a8 8 0 0 0 -11.314-11.314l-18.343 18.343v-57.372l29.657-29.657a8 8 0 0 0 -11.314-11.314l-18.343 18.343v-57.372l29.657-29.657a8 8 0 0 0 -11.314-11.314l-18.343 18.343v-76.4a8 8 0 0 0 -16 0v351.714a40.015 40.015 0 0 0 40 40 40.016 40.016 0 0 0 40-40v-432a40.016 40.016 0 0 0 -40-40z"/><circle cx="280" cy="184" r="8"/><path d="m248 0a8 8 0 0 0 -8 8v64a8 8 0 0 0 8 8h8v32h-8a7.989 7.989 0 0 0 -8 8v272a7.989 7.989 0 0 0 8 8h8v33.376a24.039 24.039 0 0 0 -16 22.624v32a24 24 0 0 0 48 0v-32a24.039 24.039 0 0 0 -16-22.624v-33.376h8a7.989 7.989 0 0 0 8-8v-176a8 8 0 0 0 -16-.02v168.02h-16v-256h16v24a8 8 0 0 0 16 0v-32a7.989 7.989 0 0 0 -8-8h-8v-32h8a8 8 0 0 0 8-8v-32a40.045 40.045 0 0 0 -40-40zm16 448a8.009 8.009 0 0 1 8 8v32a8 8 0 0 1 -16 0v-32a8.009 8.009 0 0 1 8-8zm8-384h-16v-46.629a24.041 24.041 0 0 1 16 22.629z"/><path d="m355.689 143.85a7.754 7.754 0 0 0 2.731.49 8.034 8.034 0 0 0 7.519-5.27 8 8 0 0 0 -4.779-10.25 8 8 0 1 0 -5.471 15.03z"/><path d="m511.52 173.27-29.98-82.44a8.111 8.111 0 0 0 -1.54-2.59 8 8 0 0 0 -8.01-8.24 7.954 7.954 0 0 0 -4.43 1.34l-24 16a8.026 8.026 0 0 0 -3.15 9.19l23.2 69.6-39.61 132.03-39.61-132.03 23.2-69.6a8.028 8.028 0 0 0 -3.151-9.19l-24-16a8.056 8.056 0 0 0 -6.929-.94 7.934 7.934 0 0 0 -5.031 4.87l-6.639 18.26a8.006 8.006 0 0 0 4.78 10.25 7.981 7.981 0 0 0 10.26-4.78l3.16-8.69 10.439 6.96-22.069 66.2a8.042 8.042 0 0 0 -.07 4.83l47.96 159.868c.007.024.015.049.022.074l.018.058c.005.018.014.033.02.051.064.208.13.415.212.62l14 35a8 8 0 0 0 14.856-5.942l-12.964-32.409 47.2-157.32a8.048 8.048 0 0 0 -.07-4.83l-22.07-66.2 10.44-6.96 27.76 76.32-47.56 237.8a8.2 8.2 0 0 0 -.164 1.57v56a24 24 0 0 1 -48 0v-56a6.918 6.918 0 0 0 -.16-1.57l-47.561-237.8 2.731-7.49a8 8 0 0 0 -15.04-5.47l-3.491 9.6a7.873 7.873 0 0 0 -.33 4.3l47.851 239.22v55.21a40 40 0 0 0 80 0v-55.2l47.84-239.23a7.792 7.792 0 0 0 -.32-4.3z"/><circle cx="424" cy="456" r="8"/></g></g></svg>